<svg width="48" height="48" viewBox="0 0 48 48" fill="none" xmlns="http://www.w3.org/2000/svg">
<path d="M24 12.625H20.2084C18.1143 12.625 16.4167 14.3226 16.4167 16.4167C16.4167 18.5107 18.1143 20.2083 20.2084 20.2083M24 12.625V20.2083M24 12.625H27.7917C29.8858 12.625 31.5834 14.3226 31.5834 16.4167C31.5834 18.5107 29.8858 20.2083 27.7917 20.2083M24 20.2083H20.2084M24 20.2083V27.7917M24 20.2083H27.7917M20.2084 20.2083C18.1143 20.2083 16.4167 21.9059 16.4167 24C16.4167 26.0941 18.1143 27.7917 20.2084 27.7917M24 27.7917H20.2084M24 27.7917V31.5833C24 33.6774 22.3024 35.375 20.2084 35.375C18.1143 35.375 16.4167 33.6774 16.4167 31.5833C16.4167 29.4893 18.1143 27.7917 20.2084 27.7917M27.7917 20.2083C29.8858 20.2083 31.5834 21.9059 31.5834 24C31.5834 26.0941 29.8858 27.7917 27.7917 27.7917C25.6976 27.7917 24 26.0941 24 24C24 21.9059 25.6976 20.2083 27.7917 20.2083Z" stroke="#616161" stroke-width="1.6" stroke-linecap="round" stroke-linejoin="round"/>
</svg>
