<svg width="84" height="84" viewBox="0 0 84 84" fill="none" xmlns="http://www.w3.org/2000/svg">
<g filter="url(#filter0_d_200_805)">
<g filter="url(#filter1_b_200_805)">
<path d="M20 29.2533C20 22.0628 20 18.4676 22.2338 16.2338C24.4676 14 28.0628 14 35.2533 14H48.7467C55.9372 14 59.5324 14 61.7662 16.2338C64 18.4676 64 22.0628 64 29.2533V42.7467C64 49.9372 64 53.5324 61.7662 55.7662C59.5324 58 55.9372 58 48.7467 58H35.2533C28.0628 58 24.4676 58 22.2338 55.7662C20 53.5324 20 49.9372 20 42.7467V29.2533Z" fill="#3F3D64" fill-opacity="0.1"/>
<path d="M20 29.2533C20 22.0628 20 18.4676 22.2338 16.2338C24.4676 14 28.0628 14 35.2533 14H48.7467C55.9372 14 59.5324 14 61.7662 16.2338C64 18.4676 64 22.0628 64 29.2533V42.7467C64 49.9372 64 53.5324 61.7662 55.7662C59.5324 58 55.9372 58 48.7467 58H35.2533C28.0628 58 24.4676 58 22.2338 55.7662C20 53.5324 20 49.9372 20 42.7467V29.2533Z" stroke="url(#paint0_linear_200_805)" stroke-width="0.946989"/>
</g>
<circle cx="42" cy="36" r="17.75" fill="#22212F" stroke="#373646" stroke-width="0.5"/>
<path d="M32 15V57" stroke="#373646" stroke-width="0.5"/>
<path d="M52 15V57" stroke="#373646" stroke-width="0.5"/>
<path d="M63 26L21 26" stroke="#373646" stroke-width="0.5"/>
<path d="M63 46L21 46" stroke="#373646" stroke-width="0.5"/>
<path d="M34.9496 41.8335H32.453L36.2571 30.814H39.2595L43.0582 41.8335H40.5616L37.8013 33.3321H37.7153L34.9496 41.8335ZM34.7936 37.5021H40.6907V39.3207H34.7936V37.5021ZM46.3952 41.9895C45.8679 41.9895 45.398 41.8981 44.9854 41.7151C44.5729 41.5286 44.2465 41.2542 44.0062 40.8919C43.7694 40.526 43.651 40.0704 43.651 39.5252C43.651 39.0661 43.7353 38.6805 43.9039 38.3684C44.0725 38.0563 44.3021 37.8052 44.5927 37.6151C44.8832 37.425 45.2132 37.2815 45.5827 37.1846C45.9557 37.0878 46.3467 37.0196 46.7557 36.9802C47.2363 36.93 47.6237 36.8833 47.9179 36.8403C48.212 36.7937 48.4254 36.7255 48.5582 36.6358C48.6909 36.5461 48.7572 36.4134 48.7572 36.2377V36.2054C48.7572 35.8646 48.6496 35.6009 48.4344 35.4144C48.2228 35.2279 47.9215 35.1346 47.5305 35.1346C47.118 35.1346 46.7897 35.2261 46.5458 35.409C46.3019 35.5884 46.1405 35.8144 46.0616 36.087L43.9416 35.9148C44.0492 35.4126 44.2608 34.9786 44.5765 34.6127C44.8922 34.2432 45.2993 33.9599 45.7979 33.7626C46.3001 33.5617 46.8812 33.4613 47.5412 33.4613C48.0004 33.4613 48.4398 33.5151 48.8595 33.6227C49.2828 33.7303 49.6576 33.8971 49.984 34.1231C50.314 34.3491 50.5741 34.6396 50.7642 34.9947C50.9543 35.3463 51.0494 35.7677 51.0494 36.2592V41.8335H48.8756V40.6874H48.8111C48.6783 40.9457 48.5008 41.1735 48.2784 41.3708C48.056 41.5645 47.7887 41.7169 47.4767 41.8281C47.1646 41.9357 46.8041 41.9895 46.3952 41.9895ZM47.0516 40.4076C47.3888 40.4076 47.6865 40.3413 47.9448 40.2085C48.203 40.0722 48.4057 39.8893 48.5528 39.6597C48.6999 39.4302 48.7734 39.1701 48.7734 38.8795V38.0025C48.7017 38.0491 48.603 38.0922 48.4775 38.1316C48.3555 38.1675 48.2174 38.2016 48.0632 38.2339C47.9089 38.2626 47.7547 38.2895 47.6004 38.3146C47.4462 38.3361 47.3063 38.3558 47.1807 38.3738C46.9117 38.4132 46.6767 38.476 46.4759 38.5621C46.275 38.6482 46.119 38.7648 46.0078 38.9118C45.8966 39.0553 45.841 39.2347 45.841 39.4499C45.841 39.762 45.9539 40.0005 46.1799 40.1655C46.4095 40.3269 46.7001 40.4076 47.0516 40.4076Z" fill="white"/>
</g>
<defs>
<filter id="filter0_d_200_805" x="0.58672" y="0.268651" width="82.8266" height="82.8266" filterUnits="userSpaceOnUse" color-interpolation-filters="sRGB">
<feFlood flood-opacity="0" result="BackgroundImageFix"/>
<feColorMatrix in="SourceAlpha" type="matrix" values="0 0 0 0 0 0 0 0 0 0 0 0 0 0 0 0 0 0 127 0" result="hardAlpha"/>
<feOffset dy="5.68193"/>
<feGaussianBlur stdDeviation="9.46988"/>
<feComposite in2="hardAlpha" operator="out"/>
<feColorMatrix type="matrix" values="0 0 0 0 0.952941 0 0 0 0 0.811765 0 0 0 0 0.47451 0 0 0 0.2 0"/>
<feBlend mode="normal" in2="BackgroundImageFix" result="effect1_dropShadow_200_805"/>
<feBlend mode="normal" in="SourceGraphic" in2="effect1_dropShadow_200_805" result="shape"/>
</filter>
<filter id="filter1_b_200_805" x="10.0566" y="4.0566" width="63.8868" height="63.8868" filterUnits="userSpaceOnUse" color-interpolation-filters="sRGB">
<feFlood flood-opacity="0" result="BackgroundImageFix"/>
<feGaussianBlur in="BackgroundImageFix" stdDeviation="4.73494"/>
<feComposite in2="SourceAlpha" operator="in" result="effect1_backgroundBlur_200_805"/>
<feBlend mode="normal" in="SourceGraphic" in2="effect1_backgroundBlur_200_805" result="shape"/>
</filter>
<linearGradient id="paint0_linear_200_805" x1="23.6667" y1="14" x2="44.2917" y2="63.5" gradientUnits="userSpaceOnUse">
<stop stop-color="#B58E31"/>
<stop offset="0.359375" stop-color="white"/>
<stop offset="1" stop-color="#E9A503"/>
</linearGradient>
</defs>
</svg>
